<svg width="56" height="72" viewBox="0 0 56 72" fill="none" xmlns="http://www.w3.org/2000/svg">
<path opacity="0.03" d="M44.3791 11.9142C45.1794 10.4412 47.3799 9.74788 49.2916 10.3658C49.4702 10.4231 49.6306 10.499 49.7909 10.5744C51.7677 11.8926 51.0751 13.8662 51.0751 13.8662C50.3111 15.7717 47.6574 15.8358 47.0446 15.8247C46.788 15.7872 46.5325 15.7292 46.2824 15.6483C46.0604 15.5773 45.8564 15.4873 45.6625 15.3894C44.2631 14.6238 43.6849 13.1892 44.3791 11.9142ZM53.4116 13.6566C53.7942 12.0852 53.1859 10.4519 51.3823 9.41827L56.0001 0.940847L55.4119 0.751233L53.0989 0.00561523L48.453 8.53679C48.1203 8.51447 47.7915 8.51161 47.4662 8.53679C45.3372 8.62249 43.3533 9.60879 42.4714 11.2246C41.876 12.3175 41.9048 13.4872 42.4162 14.5124L42.4099 14.5199L10.5343 50.4317L2.13452 59.894C4.03875 58.0205 5.51513 56.6955 6.67966 55.7399C6.83211 55.6158 6.9871 55.4888 7.12747 55.3772C7.15021 55.359 7.17086 55.3438 7.1936 55.3264C9.03704 53.8812 9.95424 53.5109 10.4074 53.4657C10.4719 53.4532 10.528 53.4552 10.5786 53.4636C10.5833 53.4643 10.5886 53.4643 10.593 53.465C10.7499 53.495 10.8369 53.5968 10.8369 53.5968L12.6559 51.549L43.9958 16.2418C44.1501 16.3457 44.2986 16.4518 44.4708 16.5432C44.6002 16.6128 44.7462 16.6666 44.884 16.7278C45.0425 16.7983 45.1866 16.8792 45.3578 16.9399C45.3877 16.9503 45.4177 16.9539 45.4476 16.9637C45.4829 16.9755 45.5112 16.9937 45.5464 17.0047C45.7223 17.0612 45.9035 17.0878 46.0822 17.1303C46.2516 17.1706 46.4193 17.2217 46.5906 17.2495C46.6541 17.2599 46.7175 17.2663 46.7808 17.2747L46.7792 17.2822L46.7402 17.2753L38.7145 59.3246L38.2423 61.7796L38.663 61.8715C39.0282 62.1729 39.4841 63.219 39.398 66.5529L39.0616 71.0751L39.9208 66.5864L41.2586 59.6147L49.4111 17.1604L49.4048 17.1619L49.4066 17.1521C50.9928 16.7894 52.3541 15.9281 53.0218 14.7042C53.029 14.691 53.0318 14.6776 53.0381 14.6644C53.0436 14.6547 53.0525 14.6461 53.058 14.6365C53.1223 14.5172 53.1513 14.3951 53.2012 14.2746C53.2648 14.1212 53.339 13.9705 53.3836 13.815C53.3972 13.7618 53.4007 13.7095 53.4116 13.6566Z" fill="#F1F1F2"/>
<path opacity="0.0516" d="M44.3311 11.9142C45.1313 10.4412 47.3319 9.74788 49.2435 10.3658C49.4222 10.4231 49.5825 10.499 49.7428 10.5744C51.7197 11.8926 51.0271 13.8662 51.0271 13.8662C50.263 15.7717 47.6094 15.8358 46.9966 15.8247C46.7402 15.7872 46.4845 15.7292 46.2344 15.6483C46.0123 15.5773 45.8084 15.4873 45.6144 15.3894C44.2151 14.6238 43.6369 13.1892 44.3311 11.9142ZM53.3636 13.6566C53.7181 12.0815 53.1378 10.4519 51.3343 9.41827L55.9521 0.940847L55.3639 0.751233L53.0508 0.00561523L48.405 8.53679C48.0723 8.51447 47.7435 8.51161 47.4182 8.53679C45.2891 8.62249 43.3053 9.60879 42.4234 11.2246C41.828 12.3175 41.8568 13.4872 42.3682 14.5124L42.3619 14.5199L10.4863 50.4317L2.08649 59.894C3.99072 58.0205 5.4671 56.6955 6.63163 55.7399C6.78407 55.6158 6.93906 55.4888 7.07944 55.3772C7.10218 55.359 7.12306 55.3438 7.14557 55.3264C8.99782 53.888 9.9062 53.5109 10.3593 53.4657C10.4238 53.4532 10.48 53.4552 10.5306 53.4636C10.5352 53.4643 10.5406 53.4643 10.545 53.465C10.7018 53.495 10.7888 53.5968 10.7888 53.5968L12.6079 51.549L43.9478 16.2418C44.1021 16.3457 44.2508 16.4514 44.4227 16.5432C44.5527 16.6127 44.6982 16.6666 44.836 16.7278C44.9944 16.7983 45.1383 16.8796 45.3098 16.9399C45.3397 16.9505 45.3699 16.9539 45.3996 16.9637C45.4348 16.9753 45.4631 16.9937 45.4984 17.0047C45.6743 17.0608 45.8555 17.0878 46.0342 17.1303C46.2035 17.1706 46.3713 17.2217 46.5425 17.2495C46.6059 17.2599 46.6694 17.2663 46.7328 17.2747L46.7312 17.2822L46.6922 17.2753L38.6664 59.3246L38.1943 61.7796L38.6149 61.8715C38.9801 62.1729 39.4361 63.219 39.35 66.5529L39.0135 71.0751L39.8727 66.5864L41.2106 59.6147L49.363 17.1604L49.3568 17.1619L49.3586 17.1521C50.9447 16.7894 52.306 15.9281 52.9738 14.7042C52.981 14.691 52.9833 14.6774 52.99 14.6644C52.9951 14.6545 53.0047 14.6463 53.01 14.6365C53.0759 14.5178 53.1033 14.3951 53.1531 14.2746C53.2167 14.1212 53.2931 13.9709 53.3355 13.815C53.3499 13.762 53.3518 13.7095 53.3636 13.6566Z" fill="#EEEEEF"/>
<path opacity="0.0732" d="M44.2831 11.9142C45.0834 10.4412 47.2839 9.74788 49.1955 10.3658C49.3742 10.4231 49.5345 10.499 49.6949 10.5744C51.6717 11.8926 50.9791 13.8662 50.9791 13.8662C50.2151 15.7717 47.5614 15.8358 46.9486 15.8247C46.692 15.7872 46.4365 15.7292 46.1864 15.6483C45.9644 15.5773 45.7604 15.4873 45.5664 15.3894C44.1671 14.6238 43.5889 13.1892 44.2831 11.9142ZM53.3156 13.6566C53.6701 12.0815 53.0899 10.4519 51.2863 9.41827L55.9041 0.940847L55.3159 0.751233L53.0028 0.00561523L48.357 8.53679C48.0243 8.51447 47.6955 8.51161 47.37 8.53679C45.2409 8.62249 43.2571 9.60879 42.3752 11.2246C41.7798 12.3175 41.8086 13.4872 42.3199 14.5124L42.3137 14.5199L10.438 50.4317L2.03827 59.894C3.9425 58.0205 5.41887 56.6955 6.58341 55.7399C6.73585 55.6158 6.89084 55.4888 7.03122 55.3772C7.05396 55.359 7.07484 55.3438 7.09735 55.3264C8.94984 53.888 9.85798 53.5109 10.3111 53.4657C10.3756 53.4532 10.4318 53.4552 10.4824 53.4636C10.487 53.4643 10.4923 53.4643 10.4967 53.465C10.6536 53.495 10.7406 53.5968 10.7406 53.5968L12.5597 51.549L43.8996 16.2418C44.0539 16.3457 44.2026 16.4514 44.3745 16.5432C44.5045 16.6127 44.6499 16.6666 44.788 16.7278C44.9465 16.7983 45.0903 16.8796 45.2618 16.9399C45.2917 16.9505 45.3219 16.9539 45.3516 16.9637C45.3868 16.9753 45.4152 16.9937 45.4504 17.0047C45.6263 17.0608 45.8075 17.0878 45.9862 17.1303C46.1555 17.1706 46.3233 17.2217 46.4945 17.2495C46.5579 17.2599 46.6215 17.2663 46.6848 17.2747L46.6832 17.2822L46.6442 17.2753L38.6184 59.3246L38.1463 61.7796L38.5669 61.8715C38.9321 62.1729 39.3881 63.219 39.302 66.5529L38.9655 71.0751L39.8247 66.5864L41.1626 59.6147L49.315 17.1604L49.3088 17.1619L49.3106 17.1521C50.8967 16.7894 52.258 15.9281 52.9258 14.7042C52.933 14.691 52.9353 14.6774 52.942 14.6644C52.9472 14.6545 52.9567 14.6463 52.962 14.6365C53.0279 14.5178 53.0553 14.3951 53.1052 14.2746C53.1687 14.1212 53.2451 13.9709 53.2873 13.815C53.3019 13.762 53.3038 13.7095 53.3156 13.6566Z" fill="#EBEBEC"/>
<path opacity="0.0948" d="M44.2351 11.9142C45.0353 10.4412 47.2358 9.74788 49.1473 10.3658C49.3259 10.4231 49.4863 10.499 49.6466 10.5744C51.6234 11.8926 50.9308 13.8662 50.9308 13.8662C50.1668 15.7717 47.5131 15.8358 46.9003 15.8247C46.6437 15.7872 46.3883 15.7292 46.1381 15.6483C45.9161 15.5773 45.7121 15.4873 45.5182 15.3894C44.1191 14.6238 43.5408 13.1892 44.2351 11.9142ZM53.2676 13.6566C53.6221 12.0815 53.0418 10.4519 51.2383 9.41827L55.856 0.940847L55.2679 0.751233L52.9548 0.00561523L48.309 8.53679C47.9762 8.51447 47.6475 8.51161 47.3219 8.53679C45.1929 8.62249 43.209 9.60879 42.3271 11.2246C41.7317 12.3175 41.7605 13.4872 42.2719 14.5124L42.2656 14.5199L10.39 50.4317L1.99023 59.894C3.89447 58.0205 5.37084 56.6955 6.53537 55.7399C6.68781 55.6158 6.84281 55.4888 6.98318 55.3772C7.00569 55.359 7.02681 55.3438 7.04931 55.3264C8.9018 53.8882 9.80995 53.5109 10.2631 53.4657C10.3276 53.4532 10.3837 53.4552 10.4343 53.4636C10.439 53.4643 10.4443 53.4643 10.4487 53.465C10.6056 53.495 10.6926 53.5968 10.6926 53.5968L12.5116 51.549L43.8515 16.2418C44.0058 16.3457 44.1546 16.4514 44.3265 16.5432C44.4564 16.6127 44.6019 16.6666 44.74 16.7278C44.8984 16.7983 45.0423 16.8796 45.2138 16.9399C45.2437 16.9505 45.2738 16.9539 45.3035 16.9637C45.3388 16.9753 45.3671 16.9937 45.4024 17.0047C45.5783 17.0608 45.7595 17.0878 45.9381 17.1303C46.1075 17.1706 46.2753 17.2217 46.4465 17.2495C46.5101 17.2599 46.5734 17.2663 46.6368 17.2747L46.6351 17.2822L46.5962 17.2753L38.5704 59.3246L38.0982 61.7796L38.5189 61.8715C38.8841 62.1729 39.34 63.219 39.2539 66.5529L38.9177 71.0751L39.7769 66.5864L41.1148 59.6147L49.2672 17.1604L49.261 17.1619L49.2628 17.1521C50.8489 16.7894 52.2102 15.9281 52.878 14.7042C52.8852 14.691 52.8875 14.6774 52.8942 14.6644C52.8994 14.6545 52.9089 14.6463 52.9142 14.6365C52.9801 14.5178 53.0075 14.3951 53.0574 14.2746C53.1209 14.1212 53.1973 13.9709 53.2395 13.815C53.2539 13.762 53.2557 13.7095 53.2676 13.6566Z" fill="#E8E8E9"/>
<path opacity="0.1165" d="M44.187 11.9142C44.9872 10.4412 47.1878 9.74788 49.0994 10.3658C49.2781 10.4231 49.4384 10.499 49.5987 10.5744C51.5756 11.8926 50.883 13.8662 50.883 13.8662C50.1189 15.7717 47.4653 15.8358 46.8525 15.8247C46.5959 15.7872 46.3404 15.7292 46.0903 15.6483C45.8682 15.5773 45.6643 15.4873 45.4703 15.3894C44.071 14.6238 43.4927 13.1892 44.187 11.9142ZM53.2195 13.6566C53.574 12.0815 52.9937 10.4519 51.1902 9.41827L55.8079 0.940847L55.2198 0.751233L52.9067 0.00561523L48.2609 8.53679C47.9281 8.51447 47.5994 8.51161 47.2738 8.53679C45.1448 8.62249 43.161 9.60879 42.279 11.2246C41.6837 12.3175 41.7124 13.4872 42.2238 14.5124L42.2175 14.5199L10.3419 50.4317L1.94214 59.894C3.84637 58.0205 5.32275 56.6955 6.48728 55.7399C6.63972 55.6158 6.79471 55.4888 6.93509 55.3772C6.95783 55.359 6.97871 55.3438 7.00122 55.3264C8.85394 53.8882 9.76185 53.5109 10.215 53.4657C10.2795 53.4532 10.3356 53.4552 10.3862 53.4636C10.3909 53.4643 10.3962 53.4643 10.4006 53.465C10.5575 53.495 10.6445 53.5968 10.6445 53.5968L12.4636 51.549L43.8034 16.2418C43.9577 16.3457 44.1065 16.4514 44.2784 16.5432C44.4083 16.6127 44.5538 16.6666 44.6919 16.7278C44.8503 16.7983 44.9942 16.8796 45.1657 16.9399C45.1956 16.9505 45.2257 16.9539 45.2554 16.9637C45.2909 16.9753 45.319 16.9937 45.3543 17.0047C45.5302 17.0608 45.7114 17.0878 45.89 17.1303C46.0594 17.1706 46.2272 17.2217 46.3984 17.2495C46.462 17.2599 46.5253 17.2663 46.5887 17.2747L46.587 17.2822L46.5481 17.2753L38.5223 59.3246L38.0501 61.7796L38.4708 61.8715C38.836 62.1729 39.2919 63.219 39.2059 66.5529L38.8696 71.0751L39.7288 66.5864L41.0667 59.6147L49.2191 17.1604L49.2129 17.1619L49.2147 17.1521C50.8008 16.7894 52.1621 15.9281 52.8299 14.7042C52.8371 14.691 52.8394 14.6774 52.8462 14.6644C52.8513 14.6545 52.8608 14.6463 52.8661 14.6365C52.932 14.5178 52.9594 14.3951 53.0093 14.2746C53.0728 14.1212 53.1492 13.9709 53.1914 13.815C53.2058 13.762 53.2076 13.7095 53.2195 13.6566Z" fill="#E5E5E6"/>
<path opacity="0.1381" d="M44.139 11.9142C44.9393 10.4412 47.1398 9.74788 49.0514 10.3658C49.2301 10.4231 49.3904 10.499 49.5508 10.5744C51.5276 11.8926 50.835 13.8662 50.835 13.8662C50.071 15.7717 47.4173 15.8358 46.8045 15.8247C46.5479 15.7872 46.2924 15.7292 46.0423 15.6483C45.8203 15.5773 45.6163 15.4873 45.4223 15.3894C44.023 14.6238 43.4448 13.1892 44.139 11.9142ZM53.1715 13.6566C53.526 12.0815 52.9457 10.4519 51.1422 9.41827L55.76 0.940847L55.1718 0.751233L52.8587 0.00561523L48.2129 8.53679C47.8802 8.51447 47.5514 8.51161 47.2259 8.53679C45.0968 8.62249 43.113 9.60879 42.2311 11.2246C41.6357 12.3175 41.6647 13.4872 42.1758 14.5124L42.1696 14.5199L10.2939 50.4317L1.89417 59.894C3.7984 58.0205 5.27477 56.6955 6.43931 55.7399C6.59175 55.6158 6.74674 55.4888 6.88712 55.3772C6.90985 55.359 6.93074 55.3438 6.95324 55.3264C8.80596 53.8883 9.71388 53.5109 10.167 53.4657C10.2315 53.4532 10.2877 53.4552 10.3383 53.4636C10.3429 53.4643 10.3482 53.4643 10.3526 53.465C10.5095 53.495 10.5965 53.5968 10.5965 53.5968L12.4156 51.549L43.7555 16.2418C43.9098 16.3457 44.0585 16.4514 44.2304 16.5432C44.3604 16.6127 44.5058 16.6666 44.6437 16.7278C44.8021 16.7983 44.946 16.8796 45.1177 16.9399C45.1476 16.9505 45.1778 16.9539 45.2075 16.9637C45.243 16.9753 45.271 16.9937 45.3063 17.0047C45.4822 17.0608 45.6634 17.0878 45.8421 17.1303C46.0114 17.1706 46.1792 17.2217 46.3504 17.2495C46.4138 17.2599 46.4773 17.2663 46.5407 17.2747L46.5391 17.2822L46.5001 17.2753L38.4743 59.3246L38.0022 61.7796L38.4228 61.8715C38.788 62.1729 39.244 63.219 39.1579 66.5529L38.8214 71.0751L39.6806 66.5864L41.0185 59.6147L49.1709 17.1604L49.1647 17.1619L49.1665 17.1521C50.7526 16.7894 52.1139 15.9281 52.7819 14.7042C52.7891 14.691 52.7915 14.6774 52.7982 14.6644C52.8033 14.6545 52.8128 14.6463 52.8181 14.6365C52.884 14.5178 52.9114 14.3951 52.9613 14.2746C53.0249 14.1212 53.1012 13.9709 53.1434 13.815C53.1578 13.762 53.1597 13.7095 53.1715 13.6566Z" fill="#E2E2E3"/>
<path opacity="0.1597" d="M44.091 11.9142C44.8913 10.4412 47.0918 9.74788 49.0035 10.3658C49.1821 10.4231 49.3424 10.499 49.5028 10.5744C51.4796 11.8926 50.787 13.8662 50.787 13.8662C50.023 15.7717 47.3693 15.8358 46.7565 15.8247C46.4999 15.7872 46.2444 15.7292 45.9943 15.6483C45.7723 15.5773 45.5683 15.4873 45.3744 15.3894C43.975 14.6238 43.3968 13.1892 44.091 11.9142ZM53.1235 13.6566C53.4781 12.0815 52.8978 10.4519 51.0942 9.41827L55.712 0.940847L55.1238 0.751233L52.8108 0.00561523L48.1649 8.53679C47.8322 8.51447 47.5034 8.51161 47.1779 8.53679C45.0488 8.62249 43.065 9.60879 42.1831 11.2246C41.5877 12.3175 41.6165 13.4872 42.1279 14.5124L42.1216 14.5199L10.246 50.4317L1.84619 59.894C3.75042 58.0205 5.2268 56.6955 6.39133 55.7399C6.54378 55.6158 6.69877 55.4888 6.83914 55.3772C6.86188 55.359 6.88276 55.3438 6.90527 55.3264C8.75822 53.8885 9.6659 53.5109 10.1191 53.4657C10.1836 53.4532 10.2397 53.4552 10.2903 53.4636C10.2949 53.4643 10.3003 53.4643 10.3047 53.465C10.4615 53.495 10.5485 53.5968 10.5485 53.5968L12.3676 51.549L43.7075 16.2418C43.8618 16.3457 44.0105 16.4514 44.1824 16.5432C44.3124 16.6127 44.4579 16.6666 44.5957 16.7278C44.7542 16.7983 44.898 16.8796 45.0697 16.9399C45.0996 16.9505 45.1298 16.9539 45.1595 16.9637C45.195 16.9753 45.2231 16.9937 45.2583 17.0047C45.4342 17.0608 45.6154 17.0878 45.7941 17.1303C45.9635 17.1706 46.1312 17.2217 46.3025 17.2495C46.3658 17.2599 46.4294 17.2663 46.4927 17.2747L46.4911 17.2822L46.4521 17.2753L38.4264 59.3246L37.9542 61.7796L38.3749 61.8715C38.7401 62.1729 39.196 63.219 39.1099 66.5529L38.7735 71.0751L39.6327 66.5864L40.9703 59.6147L49.1227 17.1604L49.1165 17.1619L49.1183 17.1521C50.7044 16.7894 52.0657 15.9281 52.7337 14.7042C52.7409 14.691 52.7432 14.6774 52.75 14.6644C52.7551 14.6545 52.7646 14.6463 52.7699 14.6365C52.8358 14.5178 52.8632 14.3951 52.9131 14.2746C52.9767 14.1212 53.053 13.9709 53.0952 13.815C53.1098 13.762 53.1117 13.7095 53.1235 13.6566Z" fill="#DFDFE0"/>
<path opacity="0.1813" d="M44.0429 11.9142C44.8432 10.4412 47.0437 9.74788 48.9554 10.3658C49.134 10.4231 49.2944 10.499 49.4547 10.5744C51.4315 11.8926 50.7389 13.8662 50.7389 13.8662C49.9749 15.7717 47.3212 15.8358 46.7084 15.8247C46.452 15.7872 46.1964 15.7292 45.9462 15.6483C45.7242 15.5773 45.5202 15.4873 45.3263 15.3894C43.9269 14.6238 43.3487 13.1892 44.0429 11.9142ZM53.0754 13.6566C53.43 12.0815 52.8497 10.4519 51.0462 9.41827L55.6639 0.940847L55.0757 0.751233L52.7627 0.00561523L48.1168 8.53679C47.7841 8.51447 47.4553 8.51161 47.1298 8.53679C45.0007 8.62249 43.0169 9.60879 42.135 11.2246C41.5396 12.3175 41.5686 13.4872 42.0798 14.5124L42.0735 14.5199L10.1979 50.4317L1.7981 59.894C3.70233 58.0205 5.1787 56.6955 6.34324 55.7399C6.49568 55.6158 6.65067 55.4888 6.79105 55.3772C6.81378 55.359 6.83467 55.3438 6.85717 55.3264C8.71013 53.8885 9.61781 53.5109 10.071 53.4657C10.1355 53.4532 10.1916 53.4552 10.2422 53.4636C10.2468 53.4643 10.2522 53.4643 10.2566 53.465C10.4134 53.495 10.5004 53.5968 10.5004 53.5968L12.3195 51.549L43.6594 16.2418C43.8137 16.3457 43.9624 16.4514 44.1343 16.5432C44.2643 16.6127 44.4098 16.6666 44.5476 16.7278C44.7061 16.7983 44.8499 16.8796 45.0216 16.9399C45.0515 16.9505 45.0817 16.9539 45.1114 16.9637C45.1469 16.9753 45.175 16.9937 45.2102 17.0047C45.3861 17.0608 45.5673 17.0878 45.746 17.1303C45.9154 17.1706 46.0831 17.2217 46.2544 17.2495C46.3177 17.2599 46.3813 17.2663 46.4446 17.2747L46.443 17.2822L46.404 17.2753L38.3783 59.3246L37.9061 61.7796L38.3268 61.8715C38.692 62.1729 39.1479 63.219 39.0618 66.5529L38.7254 71.0751L39.5846 66.5864L40.9224 59.6147L49.0749 17.1604L49.0686 17.1619L49.0704 17.1521C50.6566 16.7894 52.0179 15.9281 52.6856 14.7042C52.6928 14.691 52.6951 14.6774 52.7019 14.6644C52.707 14.6545 52.7165 14.6463 52.7218 14.6365C52.7877 14.5178 52.8151 14.3951 52.865 14.2746C52.9286 14.1212 53.0049 13.9709 53.0471 13.815C53.0618 13.762 53.0636 13.7095 53.0754 13.6566Z" fill="#DCDCDD"/>
<path opacity="0.2029" d="M43.9949 11.9142C44.7952 10.4412 46.9957 9.74788 48.9073 10.3658C49.086 10.4231 49.2463 10.499 49.4067 10.5744C51.3835 11.8926 50.6909 13.8662 50.6909 13.8662C49.9269 15.7717 47.2732 15.8358 46.6604 15.8247C46.404 15.7872 46.1483 15.7292 45.8982 15.6483C45.6762 15.5773 45.4722 15.4873 45.2782 15.3894C43.8789 14.6238 43.3007 13.1892 43.9949 11.9142ZM53.0274 13.6566C53.3817 12.0815 52.8016 10.4519 50.9981 9.41827L55.6159 0.940847L55.0277 0.751233L52.7146 0.00561523L48.0688 8.53679C47.7361 8.51447 47.4073 8.51161 47.0818 8.53679C44.9527 8.62249 42.9689 9.60879 42.087 11.2246C41.4916 12.3175 41.5206 13.4872 42.0317 14.5124L42.0255 14.5199L10.1498 50.4317L1.75006 59.894C3.65429 58.0205 5.13067 56.6955 6.2952 55.7399C6.44765 55.6158 6.60264 55.4888 6.74301 55.3772C6.76575 55.359 6.78663 55.3438 6.80914 55.3264C8.66232 53.8887 9.56978 53.5109 10.0229 53.4657C10.0874 53.4532 10.1436 53.4552 10.1942 53.4636C10.1988 53.4643 10.2041 53.4643 10.2085 53.465C10.3654 53.495 10.4524 53.5968 10.4524 53.5968L12.2715 51.549L43.6114 16.2418C43.7657 16.3457 43.9144 16.4514 44.0863 16.5432C44.2162 16.6127 44.3617 16.6666 44.4996 16.7278C44.658 16.7983 44.8019 16.8796 44.9736 16.9399C45.0035 16.9505 45.0337 16.9539 45.0634 16.9637C45.0986 16.9753 45.1269 16.9937 45.1622 17.0047C45.3381 17.0608 45.5193 17.0878 45.698 17.1303C45.8673 17.1706 46.0351 17.2217 46.2063 17.2495C46.2697 17.2599 46.3332 17.2663 46.3966 17.2747L46.395 17.2822L46.356 17.2753L38.3302 59.3246L37.8581 61.7796L38.2787 61.8715C38.6439 62.1729 39.0999 63.219 39.0138 66.5529L38.6773 71.0751L39.5365 66.5864L40.8744 59.6147L49.0268 17.1604L49.0206 17.1619L49.0224 17.1521C50.6085 16.7894 51.9698 15.9281 52.6376 14.7042C52.6448 14.691 52.6471 14.6774 52.6538 14.6644C52.6589 14.6545 52.6685 14.6463 52.6738 14.6365C52.7395 14.5178 52.7671 14.3951 52.817 14.2746C52.8805 14.1212 52.9569 13.9709 52.9991 13.815C53.0137 13.762 53.0156 13.7095 53.0274 13.6566Z" fill="#D8D9DB"/>
<path opacity="0.2245" d="M43.9469 11.9142C44.7471 10.4412 46.9476 9.74788 48.8593 10.3658C49.038 10.4231 49.1983 10.499 49.3586 10.5744C51.3355 11.8926 50.6429 13.8662 50.6429 13.8662C49.8788 15.7717 47.2251 15.8358 46.6124 15.8247C46.3557 15.7872 46.1003 15.7292 45.8502 15.6483C45.6281 15.5773 45.4242 15.4873 45.2302 15.3894C43.8308 14.6238 43.2526 13.1892 43.9469 11.9142ZM52.9794 13.6566C53.3337 12.0815 52.7536 10.4519 50.9501 9.41827L55.5678 0.940847L54.9797 0.751233L52.6666 0.00561523L48.0208 8.53679C47.688 8.51447 47.3593 8.51161 47.0337 8.53679C44.9047 8.62249 42.9208 9.60879 42.0389 11.2246C41.4435 12.3175 41.4723 13.4872 41.9837 14.5124L41.9774 14.5199L10.1018 50.4317L1.70203 59.894C3.60626 58.0205 5.08264 56.6955 6.24717 55.7399C6.39961 55.6158 6.5546 55.4888 6.69498 55.3772C6.71772 55.359 6.7386 55.3438 6.7611 55.3264C8.61429 53.8887 9.52174 53.5109 9.97489 53.4657C10.0394 53.4532 10.0955 53.4552 10.1461 53.4636C10.1508 53.4643 10.1561 53.4643 10.1605 53.465C10.3174 53.495 10.4044 53.5968 10.4044 53.5968L12.2234 51.549L43.5633 16.2418C43.7176 16.3457 43.8663 16.4514 44.0383 16.5432C44.1682 16.6127 44.3137 16.6666 44.4515 16.7278C44.61 16.7983 44.7538 16.8796 44.9255 16.9399C44.9555 16.9505 44.9854 16.9539 45.0153 16.9637C45.0508 16.9753 45.0789 16.9937 45.1142 17.0047C45.2903 17.0608 45.4713 17.0878 45.6499 17.1303C45.8193 17.1706 45.9871 17.2217 46.1583 17.2495C46.2216 17.2599 46.2852 17.2663 46.3486 17.2747L46.3469 17.2822L46.3079 17.2753L38.2822 59.3246L37.81 61.7796L38.2307 61.8715C38.5959 62.1729 39.0518 63.219 38.9657 66.5529L38.6293 71.0751L39.4885 66.5864L40.8264 59.6147L48.9788 17.1604L48.9725 17.1619L48.9744 17.1521C50.5605 16.7894 51.9218 15.9281 52.5896 14.7042C52.5968 14.691 52.5991 14.6774 52.6058 14.6644C52.6109 14.6545 52.6204 14.6463 52.6258 14.6365C52.6914 14.5178 52.719 14.3951 52.7689 14.2746C52.8325 14.1212 52.9088 13.9709 52.9511 13.815C52.9657 13.762 52.9675 13.7095 52.9794 13.6566Z" fill="#D5D6D8"/>
<path opacity="0.2461" d="M43.8988 11.9142C44.6991 10.4412 46.8996 9.74788 48.8113 10.3658C48.9899 10.4231 49.1503 10.499 49.3106 10.5744C51.2874 11.8926 50.5948 13.8662 50.5948 13.8662C49.8308 15.7717 47.1771 15.8358 46.5643 15.8247C46.3077 15.7872 46.0522 15.7292 45.8021 15.6483C45.5801 15.5773 45.3761 15.4873 45.1822 15.3894C43.7828 14.6238 43.2046 13.1892 43.8988 11.9142ZM52.9313 13.6566C53.2856 12.0815 52.7056 10.4519 50.902 9.41827L55.5198 0.940847L54.9316 0.751233L52.6186 0.00561523L47.9727 8.53679C47.64 8.51447 47.3112 8.51161 46.9857 8.53679C44.8566 8.62249 42.8728 9.60879 41.9909 11.2246C41.3955 12.3175 41.4245 13.4872 41.9357 14.5124L41.9294 14.5199L10.0538 50.4317L1.65399 59.894C3.55822 58.0205 5.0346 56.6955 6.19914 55.7399C6.35158 55.6158 6.50657 55.4888 6.64694 55.3772C6.66968 55.359 6.69056 55.3438 6.71307 55.3264C8.56649 53.8889 9.47371 53.5109 9.92685 53.4657C9.99135 53.4532 10.0475 53.4552 10.0981 53.4636C10.1027 53.4643 10.1081 53.4643 10.1125 53.465C10.2693 53.495 10.3563 53.5968 10.3563 53.5968L12.1754 51.549L43.5153 16.2418C43.6696 16.3457 43.8183 16.4514 43.9902 16.5432C44.1202 16.6127 44.2657 16.6666 44.4035 16.7278C44.5622 16.7983 44.7058 16.8796 44.8775 16.9399C44.9074 16.9505 44.9376 16.9539 44.9673 16.9637C45.0028 16.9755 45.0309 16.9937 45.0661 17.0047C45.2423 17.0608 45.4232 17.0878 45.6019 17.1303C45.7713 17.1706 45.939 17.2217 46.1103 17.2495C46.1736 17.2599 46.2372 17.2663 46.3005 17.2747L46.2989 17.2822L46.2599 17.2753L38.2342 59.3246L37.762 61.7796L38.1827 61.8715C38.5479 62.1729 39.0038 63.219 38.9177 66.5529L38.5815 71.0751L39.4407 66.5864L40.7785 59.6147L48.931 17.1604L48.9247 17.1619L48.9266 17.1521C50.5127 16.7894 51.874 15.9281 52.542 14.7042C52.5492 14.691 52.5515 14.6774 52.5582 14.6644C52.5633 14.6545 52.5729 14.6463 52.5782 14.6365C52.6439 14.5178 52.6715 14.3951 52.7214 14.2746C52.7849 14.1212 52.8613 13.9709 52.9035 13.815C52.9177 13.762 52.9195 13.7095 52.9313 13.6566Z" fill="#D2D3D5"/>
<path opacity="0.2677" d="M43.8508 11.9142C44.651 10.4412 46.8516 9.74788 48.7632 10.3658C48.9419 10.4231 49.1022 10.499 49.2625 10.5744C51.2394 11.8926 50.5468 13.8662 50.5468 13.8662C49.7827 15.7717 47.1291 15.8358 46.5163 15.8247C46.2597 15.7872 46.0042 15.7292 45.7541 15.6483C45.532 15.5773 45.3281 15.4873 45.1341 15.3894C43.7348 14.6238 43.1566 13.1892 43.8508 11.9142ZM52.8833 13.6566C53.2376 12.0815 52.6575 10.4519 50.854 9.41827L55.4718 0.940847L54.8836 0.751233L52.5705 0.00561523L47.9247 8.53679C47.592 8.51447 47.263 8.51161 46.9377 8.53679C44.8086 8.62249 42.8248 9.60879 41.9428 11.2246C41.3475 12.3175 41.3762 13.4872 41.8876 14.5124L41.8814 14.5199L10.0057 50.4317L1.60596 59.894C3.51019 58.0205 4.98657 56.6955 6.1511 55.7399C6.30331 55.6158 6.45853 55.4888 6.59891 55.3772C6.62165 55.359 6.64253 55.3438 6.66504 55.3264C8.51845 53.8889 9.42567 53.5109 9.87882 53.4657C9.94332 53.4532 9.99947 53.4552 10.0501 53.4636C10.0547 53.4643 10.06 53.4643 10.0644 53.465C10.2213 53.495 10.3083 53.5968 10.3083 53.5968L12.1274 51.549L43.4673 16.2418C43.6213 16.3457 43.7703 16.4514 43.9422 16.5432C44.0721 16.6127 44.2176 16.6666 44.3554 16.7278C44.5142 16.7983 44.6578 16.8796 44.8295 16.9399C44.8594 16.9505 44.8896 16.9539 44.9193 16.9637C44.9548 16.9755 44.9828 16.9937 45.0181 17.0047C45.1942 17.0608 45.3752 17.0878 45.5539 17.1303C45.7232 17.1706 45.891 17.2217 46.0622 17.2495C46.1256 17.2599 46.1891 17.2663 46.2525 17.2747L46.2506 17.2822L46.2117 17.2753L38.1861 59.3246L37.714 61.7796L38.1346 61.8715C38.4998 62.1729 38.9558 63.219 38.8697 66.5529L38.5332 71.0751L39.3924 66.5864L40.7303 59.6147L48.8827 17.1604L48.8765 17.1619L48.8783 17.1521C50.4644 16.7894 51.8257 15.9281 52.4937 14.7042C52.5009 14.691 52.5032 14.6774 52.51 14.6644C52.5151 14.6545 52.5246 14.6463 52.5299 14.6365C52.5956 14.5178 52.6232 14.3951 52.6731 14.2746C52.7367 14.1212 52.813 13.9709 52.8552 13.815C52.8696 13.762 52.8715 13.7095 52.8833 13.6566Z" fill="#CFD0D2"/>
<path opacity="0.2894" d="M43.8028 11.9142C44.603 10.4412 46.8035 9.74788 48.7152 10.3658C48.8939 10.4231 49.0542 10.499 49.2145 10.5744C51.1914 11.8926 50.4988 13.8662 50.4988 13.8662C49.7347 15.7717 47.081 15.8358 46.4683 15.8247C46.2116 15.7872 45.9562 15.7292 45.7061 15.6483C45.484 15.5773 45.2801 15.4873 45.0861 15.3894C43.6867 14.6238 43.1085 13.1892 43.8028 11.9142ZM52.8353 13.6566C53.1896 12.0815 52.6095 10.4519 50.806 9.41827L55.4237 0.940847L54.8356 0.751233L52.5225 0.00561523L47.8767 8.53679C47.5439 8.51447 47.2149 8.51161 46.8896 8.53679C44.7606 8.62249 42.7767 9.60879 41.8948 11.2246C41.2994 12.3175 41.3284 13.4872 41.8396 14.5124L41.8333 14.5199L9.9577 50.4317L1.55792 59.894C3.46215 58.0205 4.93853 56.6955 6.10307 55.7399C6.25551 55.6158 6.4105 55.4888 6.55087 55.3772C6.57361 55.359 6.59449 55.3438 6.617 55.3264C8.47065 53.889 9.37764 53.5109 9.83078 53.4657C9.89528 53.4532 9.95144 53.4552 10.002 53.4636C10.0067 53.4643 10.012 53.4643 10.0164 53.465C10.1733 53.495 10.2603 53.5968 10.2603 53.5968L12.0793 51.549L43.4192 16.2418C43.5733 16.3457 43.7222 16.4514 43.8942 16.5432C44.0241 16.6127 44.1696 16.6666 44.3074 16.7278C44.4661 16.7983 44.6097 16.8796 44.7814 16.9399C44.8114 16.9505 44.8413 16.9539 44.8712 16.9637C44.9067 16.9755 44.9348 16.9937 44.9701 17.0047C45.1462 17.0608 45.3272 17.0878 45.5056 17.1303C45.675 17.1706 45.8427 17.2217 46.014 17.2495C46.0773 17.2599 46.1409 17.2663 46.2042 17.2747L46.2024 17.2822L46.1634 17.2753L38.1379 59.3246L37.6657 61.7796L38.0863 61.8715C38.4516 62.1729 38.9075 63.219 38.8214 66.5529L38.485 71.0751L39.3442 66.5864L40.6818 59.6147L48.8342 17.1604L48.828 17.1619L48.8298 17.1521C50.4159 16.7894 51.7772 15.9281 52.4452 14.7042C52.4524 14.691 52.4548 14.6774 52.4615 14.6644C52.4666 14.6545 52.4761 14.6463 52.4814 14.6365C52.5471 14.5176 52.5747 14.3951 52.6246 14.2746C52.6882 14.1212 52.7645 13.9709 52.8067 13.815C52.8216 13.762 52.8234 13.7095 52.8353 13.6566Z" fill="#CCCDCF"/>
<path opacity="0.311" d="M43.7548 11.9142C44.555 10.4412 46.7556 9.74788 48.6672 10.3658C48.8459 10.4231 49.0062 10.499 49.1665 10.5744C51.1434 11.8926 50.4508 13.8662 50.4508 13.8662C49.6867 15.7717 47.0331 15.8358 46.4203 15.8247C46.1637 15.7872 45.9082 15.7292 45.6581 15.6483C45.436 15.5773 45.2321 15.4873 45.0381 15.3894C43.6388 14.6238 43.0606 13.1892 43.7548 11.9142ZM52.7873 13.6566C53.1416 12.0815 52.5615 10.4519 50.758 9.41827L55.3758 0.940847L54.7876 0.751233L52.4745 0.00561523L47.8287 8.53679C47.496 8.51447 47.1672 8.51161 46.8416 8.53679C44.7126 8.62249 42.7288 9.60879 41.8468 11.2246C41.2515 12.3175 41.2802 13.4872 41.7916 14.5124L41.7854 14.5199L9.90973 50.4317L1.50995 59.894C3.41418 58.0205 4.89056 56.6955 6.05509 55.7399C6.20753 55.6158 6.36252 55.4888 6.5029 55.3772C6.52564 55.359 6.54652 55.3438 6.56903 55.3264C8.42268 53.889 9.32966 53.5109 9.78281 53.4657C9.84731 53.4532 9.90346 53.4552 9.95404 53.4636C9.95868 53.4643 9.96402 53.4643 9.96843 53.465C10.1253 53.495 10.2123 53.5968 10.2123 53.5968L12.0314 51.549L43.3712 16.2418C43.5253 16.3457 43.6743 16.4514 43.8462 16.5432C43.9761 16.6127 44.1216 16.6666 44.2594 16.7278C44.4181 16.7983 44.5618 16.8796 44.7335 16.9399C44.7634 16.9505 44.7933 16.9539 44.8233 16.9637C44.8588 16.9755 44.8868 16.9935 44.9221 17.0047C45.0982 17.0608 45.2792 17.0878 45.4576 17.1303C45.627 17.1706 45.7947 17.2217 45.966 17.2495C46.0293 17.2599 46.0929 17.2663 46.1562 17.2747L46.1544 17.2822L46.1154 17.2753L38.0899 59.3246L37.6177 61.7796L38.0384 61.8715C38.4036 62.1729 38.8595 63.219 38.7734 66.5529L38.437 71.0751L39.2962 66.5864L40.634 59.6147L48.7865 17.1604L48.7802 17.1619L48.7821 17.1521C50.3682 16.7894 51.7295 15.9281 52.3975 14.7042C52.4047 14.691 52.407 14.6774 52.4137 14.6644C52.4188 14.6545 52.4283 14.6463 52.4337 14.6365C52.4993 14.5176 52.527 14.3951 52.5768 14.2746C52.6404 14.1212 52.7168 13.9709 52.759 13.815C52.7736 13.762 52.7755 13.7095 52.7873 13.6566Z" fill="#C9CACC"/>
<path opacity="0.3326" d="M43.7067 11.9142C44.507 10.4412 46.7075 9.74788 48.6192 10.3658C48.7979 10.4231 48.9582 10.499 49.1185 10.5744C51.0954 11.8926 50.4028 13.8662 50.4028 13.8662C49.6387 15.7717 46.985 15.8358 46.3723 15.8247C46.1159 15.7872 45.8602 15.7292 45.6101 15.6483C45.388 15.5773 45.1841 15.4873 44.9903 15.3894C43.5907 14.6238 43.0125 13.1892 43.7067 11.9142ZM52.7393 13.6566C53.0936 12.0815 52.5135 10.4519 50.71 9.41827L55.3277 0.940847L54.7396 0.751233L52.4265 0.00561523L47.7807 8.53679C47.4479 8.51447 47.1189 8.51161 46.7936 8.53679C44.6648 8.62249 42.6807 9.60879 41.7988 11.2246C41.2034 12.3175 41.2322 13.4872 41.7436 14.5124L41.7373 14.5199L9.86169 50.4317L1.46191 59.894C3.36615 58.0205 4.84252 56.6955 6.00706 55.7399C6.15927 55.6158 6.31426 55.4888 6.45486 55.3772C6.4776 55.359 6.49849 55.3438 6.52099 55.3264C8.37487 53.8892 9.28163 53.5109 9.73477 53.4657C9.79928 53.4532 9.85543 53.4552 9.90601 53.4636C9.91065 53.4643 9.91599 53.4643 9.92039 53.465C10.0772 53.495 10.1643 53.5968 10.1643 53.5968L11.9833 51.549L43.3232 16.2418C43.4773 16.3457 43.6262 16.4514 43.7982 16.5432C43.9281 16.6127 44.0736 16.6666 44.2114 16.7278C44.3701 16.7983 44.5137 16.8796 44.6854 16.9399C44.7154 16.9505 44.7453 16.9539 44.7752 16.9637C44.8107 16.9755 44.8388 16.9935 44.8741 17.0047C45.0502 17.0608 45.2312 17.0878 45.4096 17.1303C45.579 17.1706 45.7467 17.2217 45.9179 17.2495C45.9813 17.2599 46.0449 17.2663 46.1082 17.2747L46.1064 17.2822L46.0674 17.2753L38.0419 59.3246L37.5697 61.7796L37.9903 61.8715C38.3555 62.1729 38.8115 63.219 38.7254 66.5529L38.389 71.0751L39.2482 66.5864L40.586 59.6147L48.7384 17.1604L48.7322 17.1619L48.734 17.1521C50.3202 16.7894 51.6815 15.9281 52.3495 14.7042C52.3567 14.691 52.359 14.6774 52.3657 14.6644C52.3708 14.6545 52.3803 14.6463 52.3857 14.6365C52.4513 14.5176 52.4789 14.3951 52.5288 14.2746C52.5924 14.1212 52.6687 13.9709 52.711 13.815C52.7253 13.762 52.7274 13.7095 52.7393 13.6566Z" fill="#C6C7C9"/>
<path opacity="0.3542" d="M43.6587 11.9142C44.459 10.4412 46.6595 9.74787 48.5709 10.3658C48.7496 10.4231 48.9099 10.499 49.0702 10.5744C51.0469 11.8926 50.3545 13.8662 50.3545 13.8662C49.5904 15.7717 46.9368 15.8358 46.324 15.8247C46.0674 15.7872 45.8119 15.7292 45.5618 15.6483C45.3397 15.5773 45.1358 15.4873 44.9418 15.3894C43.5427 14.6238 42.9645 13.1892 43.6587 11.9142ZM52.6912 13.6566C53.0455 12.0815 52.4655 10.4519 50.6619 9.41827L55.2797 0.940847L54.6915 0.751233L52.3785 0.00561523L47.7326 8.53678C47.3999 8.51447 47.0709 8.51161 46.7456 8.53678C44.6167 8.62249 42.6327 9.60878 41.7508 11.2246C41.1554 12.3175 41.1844 13.4872 41.6955 14.5124L41.6893 14.5199L9.81366 50.4317L1.41388 59.8939C3.31811 58.0205 4.79449 56.6954 5.95902 55.7399C6.11123 55.6158 6.26623 55.4888 6.40683 55.3772C6.42957 55.359 6.45045 55.3438 6.47296 55.3263C8.32684 53.8892 9.23359 53.5109 9.68674 53.4657C9.75124 53.4532 9.80739 53.4552 9.85798 53.4636C9.86262 53.4643 9.86795 53.4643 9.87236 53.465C10.0292 53.495 10.1162 53.5968 10.1162 53.5968L11.9353 51.549L43.2752 16.2418C43.4292 16.3457 43.5782 16.4514 43.7501 16.5432C43.8801 16.6127 44.0255 16.6666 44.1634 16.7278C44.3221 16.7983 44.4657 16.8796 44.6374 16.9399C44.6673 16.9505 44.6973 16.9539 44.7272 16.9637C44.7627 16.9755 44.7908 16.9935 44.826 17.0047C45.0021 17.0608 45.1831 17.0878 45.3615 17.1303C45.5309 17.1706 45.6987 17.2217 45.8701 17.2495C45.9335 17.2599 45.9971 17.2663 46.0604 17.2747L46.0586 17.2822L46.0196 17.2752L37.994 59.3247L37.5219 61.7798L37.9425 61.8717C38.3078 62.1731 38.7637 63.2192 38.6776 66.553L38.3412 71.0753L39.2003 66.5866L40.5382 59.6149L48.6906 17.1606L48.6844 17.162L48.6862 17.1522C50.2724 16.7896 51.6337 15.9283 52.3017 14.7043C52.3088 14.6911 52.3112 14.6776 52.3179 14.6645C52.323 14.6547 52.3325 14.6465 52.3378 14.6367C52.4035 14.5178 52.4311 14.3953 52.481 14.2748C52.5446 14.1214 52.6209 13.9711 52.6632 13.8152C52.6773 13.762 52.6794 13.7095 52.6912 13.6566Z" fill="#C3C4C6"/>
<path opacity="0.3758" d="M43.6107 11.9142C44.4109 10.4412 46.6115 9.74788 48.5231 10.3658C48.7018 10.4231 48.8621 10.499 49.0224 10.5744C50.9991 11.8926 50.3067 13.8662 50.3067 13.8662C49.5426 15.7717 46.889 15.8358 46.2762 15.8247C46.0196 15.7872 45.7641 15.7292 45.514 15.6483C45.2919 15.5773 45.088 15.4873 44.894 15.3894C43.4947 14.6238 42.9165 13.1892 43.6107 11.9142ZM52.6432 13.6566C52.9975 12.0815 52.4174 10.4519 50.6139 9.41827L55.2317 0.940847L54.6435 0.751233L52.3304 0.00561523L47.6846 8.53679C47.3519 8.51447 47.0228 8.51161 46.6975 8.53679C44.5687 8.62249 42.5847 9.60879 41.7027 11.2246C41.1074 12.3175 41.1361 13.4872 41.6475 14.5124L41.6413 14.5199L9.76562 50.4317L1.36584 59.894C3.27008 58.0205 4.74645 56.6955 5.91099 55.7399C6.0632 55.6158 6.21819 55.4888 6.3588 55.3772C6.38154 55.359 6.40242 55.3438 6.42492 55.3264C8.27904 53.8894 9.18556 53.5109 9.6387 53.4657C9.70321 53.4532 9.75936 53.4552 9.80994 53.4636C9.81458 53.4643 9.81992 53.4643 9.82433 53.465C9.98117 53.495 10.0682 53.5968 10.0682 53.5968L11.8873 51.549L43.2271 16.2418C43.3812 16.3457 43.5302 16.4514 43.7021 16.5432C43.832 16.6127 43.9775 16.6666 44.1153 16.7278C44.274 16.7983 44.4177 16.8796 44.5894 16.9399C44.6193 16.9505 44.6492 16.9539 44.6792 16.9637C44.7147 16.9755 44.7427 16.9935 44.778 17.0047C44.9541 17.0608 45.1351 17.0878 45.3135 17.1303C45.4829 17.1706 45.6506 17.2217 45.8219 17.2495C45.8852 17.2599 45.9488 17.2663 46.0121 17.2747L46.0103 17.2822L45.9713 17.2753L37.9458 59.3246L37.4736 61.7796L37.8943 61.8715C38.2595 62.1729 38.7154 63.219 38.6293 66.5529L38.2931 71.0751L39.1523 66.5864L40.4902 59.6147L48.6426 17.1604L48.6363 17.1619L48.6382 17.1521C50.2243 16.7894 51.5856 15.9281 52.2536 14.7042C52.2608 14.691 52.2631 14.6774 52.2699 14.6644C52.275 14.6545 52.2845 14.6463 52.2898 14.6365C52.3555 14.5176 52.3831 14.3951 52.433 14.2746C52.4966 14.1212 52.5729 13.9709 52.6151 13.815C52.6293 13.762 52.6314 13.7095 52.6432 13.6566Z" fill="#C0C1C3"/>
<path opacity="0.3974" d="M43.5626 11.9142C44.3629 10.4412 46.5634 9.74788 48.4751 10.3658C48.6537 10.4231 48.8141 10.499 48.9744 10.5744C50.951 11.8926 50.2587 13.8662 50.2587 13.8662C49.4946 15.7717 46.8409 15.8358 46.2281 15.8247C45.9715 15.7872 45.7161 15.7292 45.4659 15.6483C45.2439 15.5773 45.04 15.4873 44.8462 15.3894C43.4466 14.6238 42.8684 13.1892 43.5626 11.9142ZM52.5952 13.6566C52.9495 12.0815 52.3694 10.4519 50.5659 9.41827L55.1836 0.940847L54.5954 0.751233L52.2824 0.00561523L47.6365 8.53679C47.3038 8.51447 46.9748 8.51161 46.6495 8.53679C44.5207 8.62249 42.5366 9.60879 41.6547 11.2246C41.0593 12.3175 41.0883 13.4872 41.5995 14.5124L41.5932 14.5199L9.71759 50.4317L1.31781 59.894C3.22204 58.0205 4.69842 56.6955 5.86295 55.7399C6.01516 55.6158 6.17016 55.4888 6.31076 55.3772C6.3335 55.359 6.35438 55.3438 6.37689 55.3264C8.231 53.8894 9.13753 53.5109 9.59067 53.4657C9.65518 53.4532 9.71132 53.4552 9.76191 53.4636C9.76655 53.4643 9.77188 53.4643 9.77629 53.465C9.93314 53.495 10.0202 53.5968 10.0202 53.5968L11.8392 51.549L43.1791 16.2418C43.3332 16.3457 43.4824 16.4514 43.6541 16.5432C43.784 16.6127 43.9295 16.6666 44.0673 16.7278C44.226 16.7983 44.3696 16.8796 44.5413 16.9399C44.5713 16.9505 44.6012 16.9539 44.6311 16.9637C44.6666 16.9755 44.6947 16.9935 44.73 17.0047C44.9061 17.0608 45.0871 17.0878 45.2655 17.1303C45.4349 17.1706 45.6026 17.2217 45.7741 17.2495C45.8374 17.2599 45.901 17.2663 45.9643 17.2747L45.9625 17.2822L45.9235 17.2753L37.898 59.3246L37.4258 61.7796L37.8465 61.8715C38.2117 62.1729 38.6676 63.219 38.5815 66.5529L38.2453 71.0751L39.1045 66.5864L40.4424 59.6147L48.5948 17.1604L48.5885 17.1619L48.5904 17.1521C50.1765 16.7894 51.5378 15.9281 52.2058 14.7042C52.213 14.691 52.2153 14.6774 52.2221 14.6644C52.2272 14.6545 52.2367 14.6463 52.242 14.6365C52.3074 14.5176 52.3353 14.3951 52.3852 14.2746C52.4487 14.1212 52.5251 13.9709 52.5673 13.815C52.5812 13.762 52.5833 13.7095 52.5952 13.6566Z" fill="#BDBEC0"/>
<path opacity="0.419" d="M43.5146 11.9142C44.3149 10.4412 46.5154 9.74788 48.4271 10.3658C48.6057 10.4231 48.766 10.499 48.9264 10.5744C50.903 11.8926 50.2106 13.8662 50.2106 13.8662C49.4466 15.7717 46.7929 15.8358 46.1801 15.8247C45.9235 15.7872 45.668 15.7292 45.4179 15.6483C45.1959 15.5773 44.9919 15.4873 44.7982 15.3894C43.3986 14.6238 42.8204 13.1892 43.5146 11.9142ZM52.5471 13.6566C52.9014 12.0815 52.3214 10.4519 50.5178 9.41827L55.1356 0.940847L54.5474 0.751233L52.2344 0.00561523L47.5885 8.53679C47.2558 8.51447 46.9268 8.51161 46.6015 8.53679C44.4726 8.62249 42.4886 9.60879 41.6067 11.2246C41.0113 12.3175 41.0401 13.4872 41.5514 14.5124L41.5452 14.5199L9.66956 50.4317L1.26978 59.894C3.17401 58.0205 4.65038 56.6955 5.81492 55.7399C5.96713 55.6158 6.12212 55.4888 6.26273 55.3772C6.28547 55.359 6.30635 55.3438 6.32885 55.3264C8.1832 53.8896 9.08949 53.5109 9.54264 53.4657C9.60714 53.4532 9.66329 53.4552 9.71387 53.4636C9.71851 53.4643 9.72385 53.4643 9.72826 53.465C9.88511 53.495 9.97212 53.5968 9.97212 53.5968L11.7912 51.549L43.1311 16.2418C43.2851 16.3457 43.4341 16.4514 43.606 16.5432C43.736 16.6127 43.8814 16.6666 44.0193 16.7278C44.178 16.7983 44.3216 16.8796 44.4933 16.9399C44.5232 16.9505 44.5532 16.9539 44.5831 16.9637C44.6186 16.9755 44.6467 16.9935 44.6819 17.0047C44.858 17.0608 45.039 17.0878 45.2174 17.1303C45.3868 17.1706 45.5546 17.2217 45.726 17.2495C45.7894 17.2599 45.853 17.2663 45.9163 17.2747L45.9144 17.2822L45.8755 17.2753L37.85 59.3246L37.3778 61.7796L37.7984 61.8715C38.1636 62.1729 38.6196 63.219 38.5335 66.5529L38.1971 71.0751L39.0562 66.5864L40.3941 59.6147L48.5465 17.1604L48.5403 17.1619L48.5421 17.1521C50.1283 16.7894 51.4896 15.9281 52.1576 14.7042C52.1647 14.691 52.1671 14.6774 52.1738 14.6644C52.1789 14.6545 52.1884 14.6463 52.1937 14.6365C52.2592 14.5176 52.287 14.3951 52.3369 14.2746C52.4005 14.1212 52.4768 13.9709 52.519 13.815C52.5332 13.762 52.5353 13.7095 52.5471 13.6566Z" fill="#BABBBD"/>
<path opacity="0.4406" d="M43.4666 11.9142C44.2668 10.4412 46.4674 9.74788 48.379 10.3658C48.5577 10.4231 48.718 10.499 48.8783 10.5744C50.8549 11.8926 50.1626 13.8662 50.1626 13.8662C49.3985 15.7717 46.7449 15.8358 46.1321 15.8247C45.8755 15.7872 45.62 15.7292 45.3699 15.6483C45.1478 15.5773 44.9439 15.4873 44.7501 15.3894C43.3506 14.6238 42.7724 13.1892 43.4666 11.9142ZM52.4991 13.6566C52.8534 12.0815 52.2733 10.4519 50.4698 9.41827L55.0876 0.940847L54.4994 0.751233L52.1863 0.00561523L47.5405 8.53679C47.2077 8.51447 46.8787 8.51161 46.5534 8.53679C44.4246 8.62249 42.4406 9.60879 41.5586 11.2246C40.9632 12.3175 40.992 13.4872 41.5034 14.5124L41.4971 14.5199L9.62152 50.4317L1.22174 59.894C3.12574 58.0205 4.60235 56.6955 5.76688 55.7399C5.91909 55.6158 6.07408 55.4888 6.21469 55.3772C6.23743 55.359 6.25831 55.3438 6.28082 55.3264C8.13516 53.8896 9.04145 53.5109 9.4946 53.4657C9.5591 53.4532 9.61525 53.4552 9.66583 53.4636C9.67047 53.4643 9.67581 53.4643 9.68022 53.465C9.83707 53.495 9.92408 53.5968 9.92408 53.5968L11.7432 51.549L43.0833 16.2418C43.2373 16.3457 43.3863 16.4514 43.5582 16.5432C43.6882 16.6127 43.8336 16.6666 43.9715 16.7278C44.1302 16.7983 44.2738 16.8796 44.4455 16.9399C44.4754 16.9505 44.5053 16.9539 44.5353 16.9637C44.5708 16.9755 44.5989 16.9935 44.6341 17.0047C44.8102 17.0608 44.9912 17.0878 45.1696 17.1303C45.339 17.1706 45.5068 17.2217 45.6782 17.2495C45.7416 17.2599 45.8052 17.2663 45.8685 17.2747L45.8666 17.2822L45.8277 17.2753L37.8021 59.3246L37.33 61.7796L37.7506 61.8715C38.1158 62.1729 38.5718 63.219 38.4857 66.5529L38.1492 71.0751L39.0084 66.5864L40.3461 59.6147L48.4985 17.1604L48.4922 17.1619L48.4941 17.1521C50.0802 16.7894 51.4415 15.9281 52.1095 14.7042C52.1167 14.691 52.119 14.6774 52.1258 14.6644C52.1309 14.6545 52.1404 14.6463 52.1457 14.6365C52.2111 14.5176 52.239 14.3951 52.2889 14.2746C52.3524 14.1212 52.4288 13.9709 52.471 13.815C52.4852 13.762 52.4872 13.7095 52.4991 13.6566Z" fill="#B7B8BA"/>
<path opacity="0.4623" d="M43.4186 11.9142C44.2189 10.4412 46.4194 9.74788 48.331 10.3658C48.5097 10.4231 48.67 10.499 48.8304 10.5744C50.807 11.8926 50.1146 13.8662 50.1146 13.8662C49.3506 15.7717 46.6969 15.8358 46.0841 15.8247C45.8277 15.7872 45.572 15.7292 45.3219 15.6483C45.0998 15.5773 44.8959 15.4873 44.7022 15.3894C43.3026 14.6238 42.7244 13.1892 43.4186 11.9142ZM52.4511 13.6566C52.8054 12.0815 52.2253 10.4519 50.4218 9.41827L55.0396 0.940847L54.4514 0.751233L52.1383 0.00561523L47.4925 8.53679C47.1598 8.51447 46.8308 8.51161 46.5055 8.53679C44.3766 8.62249 42.3926 9.60879 41.5107 11.2246C40.9153 12.3175 40.9443 13.4872 41.4554 14.5124L41.4492 14.5199L9.57354 50.4317L1.17377 59.894C3.07777 58.0205 4.55437 56.6955 5.71891 55.7399C5.87112 55.6158 6.02611 55.4888 6.16672 55.3772C6.18922 55.359 6.21034 55.3438 6.23285 55.3264C8.08742 53.8898 8.99348 53.5109 9.44663 53.4657C9.51113 53.4532 9.56728 53.4552 9.61786 53.4636C9.6225 53.4643 9.62784 53.4643 9.63224 53.465C9.78909 53.495 9.8761 53.5968 9.8761 53.5968L11.6952 51.549L43.0353 16.2418C43.1894 16.3457 43.3383 16.4514 43.5103 16.5432C43.6402 16.6127 43.7857 16.6666 43.9235 16.7278C44.0822 16.7983 44.2258 16.8796 44.3975 16.9399C44.4274 16.9505 44.4574 16.9539 44.4873 16.9637C44.5228 16.9755 44.5509 16.9935 44.5861 17.0047C44.7623 17.0606 44.9432 17.0878 45.1217 17.1303C45.291 17.1706 45.4588 17.2217 45.6303 17.2495C45.6936 17.2599 45.7572 17.2663 45.8205 17.2747L45.8187 17.2822L45.7797 17.2753L37.7542 59.3246L37.282 61.7796L37.7027 61.8715C38.0679 62.1729 38.5238 63.219 38.4377 66.5529L38.1013 71.0751L38.9605 66.5864L40.2983 59.6147L48.4508 17.1604L48.4445 17.1619L48.4464 17.1521C50.0325 16.7894 51.3938 15.9281 52.0618 14.7042C52.069 14.691 52.0713 14.6774 52.078 14.6644C52.0831 14.6545 52.0926 14.6463 52.098 14.6365C52.1634 14.5176 52.1912 14.3951 52.2411 14.2746C52.3047 14.1212 52.381 13.9709 52.4233 13.815C52.4372 13.762 52.4393 13.7095 52.4511 13.6566Z" fill="#B4B5B7"/>
<path opacity="0.4839" d="M43.3703 11.9142C44.1705 10.4412 46.3711 9.74788 48.2827 10.3658C48.4614 10.4231 48.6217 10.499 48.782 10.5744C50.7587 11.8926 50.0663 13.8662 50.0663 13.8662C49.3022 15.7717 46.6486 15.8358 46.0358 15.8247C45.7794 15.7872 45.5237 15.7292 45.2736 15.6483C45.0515 15.5773 44.8476 15.4873 44.6536 15.3894C43.2543 14.6238 42.6763 13.1892 43.3703 11.9142ZM52.403 13.6566C52.7573 12.0815 52.1772 10.4519 50.3737 9.41827L54.9915 0.940847L54.4033 0.751233L52.0902 0.00561523L47.4444 8.53679C47.1117 8.51447 46.7827 8.51161 46.4574 8.53679C44.3285 8.62249 42.3445 9.60879 41.4626 11.2246C40.8672 12.3175 40.896 13.4872 41.4073 14.5124L41.4011 14.5199L9.52545 50.4317L1.12567 59.894C3.02967 58.0205 4.50628 56.6955 5.67081 55.7399C5.82302 55.6158 5.97801 55.4888 6.11862 55.3772C6.14136 55.359 6.16224 55.3438 6.18475 55.3264C8.03956 53.8899 8.94538 53.5109 9.39853 53.4657C9.46303 53.4532 9.51895 53.4552 9.56976 53.4636C9.57417 53.4643 9.57974 53.4643 9.58415 53.465C9.741 53.495 9.82801 53.5968 9.82801 53.5968L11.6471 51.549L42.9872 16.2418C43.1413 16.3457 43.2902 16.4514 43.4622 16.5432C43.5921 16.6127 43.7376 16.6666 43.8754 16.7278C44.0341 16.7983 44.1777 16.8796 44.3494 16.9399C44.3793 16.9505 44.4093 16.9539 44.4392 16.9637C44.4747 16.9755 44.5028 16.9935 44.5381 17.0047C44.7142 17.0606 44.8951 17.0878 45.0736 17.1303C45.2429 17.1706 45.4107 17.2217 45.5822 17.2495C45.6455 17.2599 45.7091 17.2663 45.7724 17.2747L45.7706 17.2822L45.7316 17.2753L37.7061 59.3246L37.2339 61.7796L37.6546 61.8715C38.0198 62.1729 38.4757 63.219 38.3896 66.5529L38.0532 71.0751L38.9124 66.5864L40.2502 59.6147L48.4027 17.1604L48.3964 17.1619L48.3983 17.1521C49.9844 16.7894 51.3457 15.9281 52.0137 14.7042C52.0209 14.691 52.0232 14.6774 52.0299 14.6644C52.035 14.6545 52.0445 14.6461 52.0499 14.6365C52.1153 14.5176 52.1431 14.3951 52.193 14.2746C52.2566 14.1212 52.3329 13.9709 52.3752 13.815C52.3891 13.762 52.3912 13.7095 52.403 13.6566Z" fill="#B1B2B4"/>
<path opacity="0.5055" d="M43.3223 11.9142C44.1226 10.4412 46.3231 9.74788 48.2347 10.3658C48.4134 10.4231 48.5737 10.499 48.7341 10.5744C50.7107 11.8926 50.0183 13.8662 50.0183 13.8662C49.2543 15.7717 46.6006 15.8358 45.9878 15.8247C45.7312 15.7872 45.4757 15.7292 45.2256 15.6483C45.0036 15.5773 44.7996 15.4873 44.6059 15.3894C43.2063 14.6238 42.6281 13.1892 43.3223 11.9142ZM52.355 13.6566C52.7093 12.0815 52.1293 10.4519 50.3257 9.41827L54.9435 0.940847L54.3553 0.751233L52.0423 0.00561523L47.3964 8.53679C47.0637 8.51447 46.7347 8.51161 46.4094 8.53679C44.2806 8.62249 42.2965 9.60879 41.4146 11.2246C40.8192 12.3175 40.8482 13.4872 41.3594 14.5124L41.3531 14.5199L9.47747 50.4317L1.0777 59.894C2.9817 58.0205 4.4583 56.6955 5.62284 55.7399C5.77505 55.6158 5.93004 55.4888 6.07065 55.3772C6.09339 55.359 6.11427 55.3438 6.13678 55.3264C7.99159 53.8899 8.89741 53.5109 9.35056 53.4657C9.41506 53.4532 9.47098 53.4552 9.52179 53.4636C9.52643 53.4643 9.53177 53.4643 9.53618 53.465C9.69303 53.495 9.78004 53.5968 9.78004 53.5968L11.5991 51.549L42.9392 16.2418C43.0933 16.3457 43.2422 16.4514 43.4142 16.5432C43.5441 16.6127 43.6896 16.6666 43.8274 16.7278C43.9861 16.7983 44.13 16.8796 44.3014 16.9399C44.3314 16.9505 44.3613 16.9539 44.3912 16.9637C44.4267 16.9755 44.4548 16.9935 44.4901 17.0047C44.6662 17.0606 44.8472 17.0878 45.0256 17.1303C45.195 17.1706 45.3627 17.2217 45.5342 17.2495C45.5975 17.2599 45.6611 17.2663 45.7245 17.2747L45.7226 17.2822L45.6836 17.2753L37.6581 59.3246L37.1859 61.7796L37.6066 61.8715C37.9718 62.1729 38.4277 63.219 38.3416 66.5529L38.0052 71.0751L38.8644 66.5864L40.2023 59.6147L48.3547 17.1604L48.3484 17.1619L48.3503 17.1521C49.9364 16.7894 51.2977 15.9281 51.9657 14.7042C51.9729 14.691 51.9752 14.6774 51.9819 14.6644C51.987 14.6545 51.9966 14.6461 52.0019 14.6365C52.0673 14.5176 52.0952 14.3951 52.1451 14.2746C52.2086 14.1212 52.285 13.9709 52.3272 13.815C52.3411 13.762 52.3432 13.7095 52.355 13.6566Z" fill="#AEAFB1"/>
<path opacity="0.5271" d="M43.2742 11.9142C44.0745 10.4412 46.275 9.74788 48.1866 10.3658C48.3653 10.4231 48.5256 10.499 48.6862 10.5744C50.6628 11.8926 49.9704 13.8662 49.9704 13.8662C49.2064 15.7717 46.5527 15.8358 45.9399 15.8247C45.6833 15.7872 45.4279 15.7292 45.1777 15.6483C44.9557 15.5773 44.7517 15.4873 44.558 15.3894C43.1582 14.6238 42.58 13.1892 43.2742 11.9142ZM52.3069 13.6566C52.6612 12.0815 52.0812 10.4519 50.2776 9.41827L54.8954 0.940847L54.3072 0.751233L51.9942 0.00561523L47.3483 8.53679C47.0156 8.51447 46.6866 8.51161 46.3613 8.53679C44.2325 8.62249 42.2484 9.60879 41.3665 11.2246C40.7711 12.3175 40.7999 13.4872 41.3113 14.5124L41.305 14.5199L9.42938 50.4317L1.0296 59.894C2.93383 58.0205 4.41021 56.6955 5.57474 55.7399C5.72695 55.6158 5.88194 55.4888 6.02255 55.3772C6.04529 55.359 6.06617 55.3438 6.08868 55.3264C7.94349 53.8901 8.84932 53.5109 9.30246 53.4657C9.36696 53.4532 9.42288 53.4552 9.47369 53.4636C9.4781 53.4643 9.48367 53.4643 9.48808 53.465C9.64493 53.495 9.73194 53.5968 9.73194 53.5968L11.551 51.549L42.8911 16.2418C43.0452 16.3457 43.1942 16.4514 43.3661 16.5432C43.496 16.6127 43.6415 16.6666 43.7793 16.7278C43.938 16.7983 44.0819 16.8796 44.2533 16.9399C44.2833 16.9505 44.3132 16.9539 44.3431 16.9637C44.3786 16.9755 44.4067 16.9935 44.442 17.0047C44.6181 17.0606 44.7991 17.0878 44.9775 17.1303C45.1469 17.1706 45.3146 17.2217 45.4861 17.2495C45.5494 17.2599 45.613 17.2663 45.6764 17.2747L45.6745 17.2822L45.6355 17.2753L37.61 59.3246L37.1378 61.7796L37.5585 61.8715C37.9237 62.1729 38.3796 63.219 38.2935 66.5529L37.9573 71.0751L38.8165 66.5864L40.1544 59.6147L48.3068 17.1604L48.3006 17.1619L48.3022 17.1521C49.8883 16.7894 51.2496 15.9281 51.9176 14.7042C51.9248 14.691 51.9271 14.6774 51.9338 14.6644C51.9389 14.6545 51.9485 14.6461 51.9538 14.6365C52.0192 14.5176 52.0471 14.3951 52.097 14.2746C52.1605 14.1212 52.2369 13.9709 52.2791 13.815C52.293 13.762 52.2951 13.7095 52.3069 13.6566Z" fill="#ABACAE"/>
<path opacity="0.5487" d="M43.2262 11.9142C44.0265 10.4412 46.227 9.74788 48.1387 10.3658C48.3173 10.4231 48.4776 10.499 48.6382 10.5744C50.6148 11.8926 49.9225 13.8662 49.9225 13.8662C49.1584 15.7717 46.5047 15.8358 45.892 15.8247C45.6353 15.7872 45.3799 15.7292 45.1298 15.6483C44.9077 15.5773 44.7038 15.4873 44.51 15.3894C43.1102 14.6238 42.532 13.1892 43.2262 11.9142ZM52.259 13.6566C52.6133 12.0815 52.0332 10.4519 50.2297 9.41827L54.8474 0.940847L54.2593 0.751233L51.9462 0.00561523L47.3004 8.53679C46.9676 8.51447 46.6386 8.51161 46.3133 8.53679C44.1845 8.62249 42.2004 9.60879 41.3185 11.2246C40.7231 12.3175 40.7521 13.4872 41.2633 14.5124L41.257 14.5199L9.3814 50.4317L0.981628 59.894C2.88563 58.0205 4.36223 56.6955 5.52677 55.7399C5.67898 55.6158 5.83397 55.4888 5.97458 55.3772C5.99732 55.359 6.0182 55.3438 6.04071 55.3264C7.89575 53.8901 8.80134 53.5109 9.25449 53.4657C9.31899 53.4532 9.37491 53.4552 9.42572 53.4636C9.43013 53.4643 9.4357 53.4643 9.44011 53.465C9.59696 53.495 9.68397 53.5968 9.68397 53.5968L11.503 51.549L42.8432 16.2418C42.9972 16.3457 43.1464 16.4514 43.3181 16.5432C43.448 16.6127 43.5935 16.6666 43.7313 16.7278C43.8901 16.7983 44.0339 16.8796 44.2054 16.9399C44.2353 16.9505 44.2652 16.9539 44.2952 16.9637C44.3307 16.9755 44.3587 16.9935 44.394 17.0047C44.5701 17.0606 44.7511 17.0878 44.9295 17.1303C45.0989 17.1706 45.2667 17.2217 45.4381 17.2495C45.5015 17.2599 45.565 17.2663 45.6284 17.2747L45.6265 17.2822L45.5876 17.2753L37.562 59.3246L37.0899 61.7796L37.5105 61.8715C37.8757 62.1729 38.3317 63.219 38.2456 66.5529L37.9091 71.0751L38.7683 66.5864L40.1062 59.6147L48.2586 17.1604L48.2524 17.1619L48.254 17.1521C49.8401 16.7894 51.2014 15.9281 51.8694 14.7042C51.8766 14.691 51.8789 14.6774 51.8856 14.6644C51.8907 14.6545 51.9003 14.6461 51.9056 14.6365C51.9708 14.5176 51.9989 14.3951 52.0488 14.2746C52.1123 14.1212 52.1887 13.9709 52.2309 13.815C52.245 13.762 52.2471 13.7095 52.259 13.6566Z" fill="#A7A9AC"/>
<path opacity="0.5703" d="M43.1781 11.9142C43.9784 10.4412 46.1789 9.74787 48.0906 10.3658C48.2692 10.4231 48.4296 10.499 48.5901 10.5744C50.5667 11.8926 49.8744 13.8662 49.8744 13.8662C49.1103 15.7717 46.4566 15.8358 45.8439 15.8247C45.5872 15.7872 45.3318 15.7292 45.0817 15.6483C44.8596 15.5773 44.6557 15.4873 44.4619 15.3894C43.0621 14.6238 42.4839 13.1892 43.1781 11.9142ZM52.2109 13.6566C52.5652 12.0815 51.9851 10.4519 50.1816 9.41827L54.7993 0.940847L54.2112 0.751233L51.8981 0.00561523L47.2523 8.53678C46.9195 8.51447 46.5905 8.51161 46.2652 8.53678C44.1364 8.62249 42.1523 9.60878 41.2704 11.2246C40.675 12.3175 40.704 13.4872 41.2152 14.5124L41.2089 14.5199L9.33331 50.4317L0.933533 59.8939C2.83753 58.0205 4.31414 56.6954 5.47868 55.7399C5.63088 55.6158 5.78588 55.4888 5.92648 55.3772C5.94922 55.359 5.9701 55.3438 5.99284 55.3263C7.84788 53.8903 8.75348 53.5109 9.20662 53.4657C9.27112 53.4532 9.32704 53.4552 9.37786 53.4636C9.38227 53.4643 9.38783 53.4643 9.39224 53.465C9.54909 53.495 9.6361 53.5968 9.6361 53.5968L11.4552 51.549L42.7953 16.2418C42.9494 16.3457 43.0983 16.4514 43.2702 16.5432C43.4002 16.6127 43.5457 16.6666 43.6835 16.7278C43.8422 16.7983 43.986 16.8796 44.1575 16.9399C44.1874 16.9505 44.2174 16.9539 44.2473 16.9637C44.2828 16.9755 44.3109 16.9935 44.3461 17.0047C44.5223 17.0606 44.7032 17.0878 44.8817 17.1303C45.051 17.1706 45.2188 17.2217 45.3903 17.2495C45.4536 17.2599 45.5172 17.2663 45.5805 17.2747L45.5787 17.2822L45.5397 17.2752L37.5137 59.3247L37.0415 61.7798L37.4622 61.8717C37.8274 62.1731 38.2833 63.2192 38.1972 66.553L37.8608 71.0753L38.72 66.5866L40.0576 59.6149L48.2101 17.1606L48.2038 17.162L48.2054 17.1522C49.7915 16.7896 51.1528 15.9283 51.8208 14.7043C51.828 14.6911 51.8304 14.6776 51.8371 14.6645C51.8422 14.6547 51.8517 14.6463 51.857 14.6367C51.9222 14.5178 51.9503 14.3953 52.0002 14.2748C52.0638 14.1214 52.1401 13.9711 52.1823 13.8152C52.197 13.762 52.199 13.7095 52.2109 13.6566Z" fill="#A4A6A9"/>
<path opacity="0.5919" d="M43.1302 11.9142C43.9304 10.4412 46.1309 9.74788 48.0426 10.3658C48.2213 10.4231 48.3816 10.499 48.5421 10.5744C50.5188 11.8926 49.8264 13.8662 49.8264 13.8662C49.0623 15.7717 46.4087 15.8358 45.7959 15.8247C45.5393 15.7872 45.2838 15.7292 45.0335 15.6483C44.8114 15.5773 44.6075 15.4873 44.4137 15.3894C43.0141 14.6238 42.4359 13.1892 43.1302 11.9142ZM52.1629 13.6566C52.5172 12.0815 51.9371 10.4519 50.1336 9.41827L54.7514 0.940847L54.1632 0.751233L51.8501 0.00561523L47.2043 8.53679C46.8716 8.51447 46.5426 8.51161 46.2173 8.53679C44.0884 8.62249 42.1044 9.60879 41.2224 11.2246C40.6271 12.3175 40.6558 13.4872 41.1672 14.5124L41.161 14.5199L9.28534 50.4317L0.885559 59.894C2.78956 58.0205 4.26617 56.6955 5.4307 55.7399C5.58291 55.6158 5.7379 55.4888 5.87851 55.3772C5.90125 55.359 5.92213 55.3438 5.94464 55.3264C7.79991 53.8903 8.70527 53.5109 9.15842 53.4657C9.22292 53.4532 9.27884 53.4552 9.32965 53.4636C9.33406 53.4643 9.33963 53.4643 9.34404 53.465C9.50089 53.495 9.5879 53.5968 9.5879 53.5968L11.407 51.549L42.7471 16.2418C42.9011 16.3457 43.0501 16.4514 43.222 16.5432C43.352 16.6127 43.4975 16.6666 43.6353 16.7278C43.794 16.7983 43.9378 16.8796 44.1093 16.9399C44.1392 16.9505 44.1692 16.9539 44.1989 16.9637C44.2344 16.9755 44.2624 16.9935 44.2977 17.0047C44.4738 17.0606 44.6548 17.0878 44.8332 17.1303C45.0026 17.1706 45.1704 17.2217 45.3418 17.2495C45.4052 17.2599 45.4685 17.2663 45.5321 17.2747L45.5302 17.2822L45.4912 17.2753L37.4657 59.3246L36.9936 61.7796L37.4142 61.8715C37.7794 62.1729 38.2351 63.219 38.1493 66.5529L37.8128 71.0751L38.672 66.5864L40.0097 59.6147L48.1621 17.1604L48.1558 17.1619L48.1574 17.1521C49.7436 16.7894 51.1049 15.9281 51.7729 14.7042C51.7801 14.691 51.7824 14.6774 51.7891 14.6644C51.7942 14.6545 51.8037 14.6461 51.8091 14.6365C51.8743 14.5176 51.9023 14.3951 51.9522 14.2746C52.0158 14.1212 52.0921 13.9709 52.1344 13.815C52.149 13.762 52.1511 13.7095 52.1629 13.6566Z" fill="#A1A3A6"/>
<path opacity="0.6135" d="M43.0821 11.9142C43.8824 10.4412 46.0829 9.74788 47.9946 10.3658C48.1732 10.4231 48.3336 10.499 48.4941 10.5744C50.4707 11.8926 49.7784 13.8662 49.7784 13.8662C49.0143 15.7717 46.3606 15.8358 45.7479 15.8247C45.4915 15.7872 45.2358 15.7292 44.9857 15.6483C44.7636 15.5773 44.5597 15.4873 44.3659 15.3894C42.9661 14.6238 42.3879 13.1892 43.0821 11.9142ZM52.1149 13.6566C52.4692 12.0815 51.8891 10.4519 50.0856 9.41827L54.7033 0.940847L54.1152 0.751233L51.8021 0.00561523L47.1563 8.53679C46.8235 8.51447 46.4945 8.51161 46.1692 8.53679C44.0404 8.62249 42.0563 9.60879 41.1744 11.2246C40.579 12.3175 40.608 13.4872 41.1192 14.5124L41.1129 14.5199L9.2373 50.4317L0.837524 59.894C2.74152 58.0205 4.21813 56.6955 5.38267 55.7399C5.53488 55.6158 5.68987 55.4888 5.83047 55.3772C5.85321 55.359 5.8741 55.3438 5.8966 55.3264C7.75211 53.8905 8.65724 53.5109 9.11038 53.4657C9.17489 53.4532 9.23081 53.4552 9.28162 53.4636C9.28603 53.4643 9.2916 53.4643 9.296 53.465C9.45285 53.495 9.53963 53.5968 9.53963 53.5968L11.3587 51.549L42.6988 16.2418C42.8529 16.3457 43.0018 16.4514 43.1738 16.5432C43.3037 16.6127 43.4492 16.6666 43.587 16.7278C43.7457 16.7983 43.8896 16.8796 44.061 16.9399C44.091 16.9505 44.1209 16.9539 44.1506 16.9637C44.1861 16.9755 44.2142 16.9935 44.2494 17.0047C44.4256 17.0606 44.6063 17.0878 44.785 17.1303C44.9543 17.1706 45.1221 17.2217 45.2936 17.2495C45.3569 17.2599 45.4202 17.2663 45.4838 17.2747L45.482 17.2822L45.443 17.2753L37.4175 59.3246L36.9453 61.7796L37.366 61.8715C37.7312 62.1729 38.1869 63.219 38.101 66.5529L37.7646 71.0751L38.6238 66.5864L39.9614 59.6147L48.1138 17.1604L48.1076 17.1619L48.1092 17.1521C49.6953 16.7894 51.0566 15.9281 51.7246 14.7042C51.7318 14.691 51.7341 14.6774 51.7408 14.6644C51.7459 14.6545 51.7555 14.6461 51.7608 14.6365C51.826 14.5174 51.8541 14.3951 51.904 14.2746C51.9675 14.1212 52.0439 13.9709 52.0861 13.815C52.1009 13.762 52.1028 13.7095 52.1149 13.6566Z" fill="#9EA0A3"/>
<path opacity="0.6352" d="M43.034 11.9142C43.8343 10.4412 46.0348 9.74788 47.9465 10.3658C48.1251 10.4231 48.2855 10.499 48.446 10.5744C50.4226 11.8926 49.7303 13.8662 49.7303 13.8662C48.9662 15.7717 46.3125 15.8358 45.6998 15.8247C45.4431 15.7872 45.1877 15.7292 44.9376 15.6483C44.7155 15.5773 44.5116 15.4873 44.3178 15.3894C42.918 14.6238 42.3398 13.1892 43.034 11.9142ZM52.0668 13.6566C52.4211 12.0815 51.841 10.4519 50.0375 9.41827L54.6552 0.940847L54.0671 0.751233L51.754 0.00561523L47.1082 8.53679C46.7754 8.51447 46.4464 8.51161 46.1211 8.53679C43.9923 8.62249 42.0082 9.60879 41.1263 11.2246C40.5309 12.3175 40.5597 13.4872 41.0711 14.5124L41.0648 14.5199L9.18921 50.4317L0.789429 59.894C2.69343 58.0205 4.17004 56.6955 5.33457 55.7399C5.48678 55.6158 5.64177 55.4888 5.78238 55.3772C5.80512 55.359 5.826 55.3438 5.84851 55.3264C7.70401 53.8905 8.60914 53.5109 9.06229 53.4657C9.12679 53.4532 9.18271 53.4552 9.23352 53.4636C9.23793 53.4643 9.2435 53.4643 9.24791 53.465C9.40476 53.495 9.49154 53.5968 9.49154 53.5968L11.3106 51.549L42.6507 16.2418C42.8048 16.3457 42.9537 16.4514 43.1257 16.5432C43.2556 16.6127 43.4011 16.6666 43.5389 16.7278C43.6976 16.7983 43.8415 16.8796 44.0129 16.9399C44.0429 16.9505 44.0728 16.9539 44.1025 16.9637C44.138 16.9755 44.1661 16.9935 44.2013 17.0047C44.3775 17.0606 44.5582 17.0878 44.7369 17.1303C44.9062 17.1706 45.074 17.2217 45.2455 17.2495C45.3088 17.2599 45.3722 17.2663 45.4357 17.2747L45.4339 17.2822L45.3949 17.2753L37.3694 59.3246L36.8972 61.7796L37.3179 61.8715C37.6831 62.1729 38.1388 63.219 38.0529 66.5529L37.7165 71.0751L38.5757 66.5864L39.9135 59.6147L48.066 17.1604L48.0597 17.1619L48.0613 17.1521C49.6474 16.7894 51.0087 15.9281 51.6767 14.7042C51.6839 14.691 51.6862 14.6774 51.693 14.6644C51.6981 14.6545 51.7076 14.6461 51.7129 14.6365C51.7781 14.5174 51.8062 14.3951 51.8561 14.2746C51.9197 14.1212 51.996 13.9709 52.0382 13.815C52.0528 13.762 52.0547 13.7095 52.0668 13.6566Z" fill="#9B9DA0"/>
<path opacity="0.6568" d="M42.9861 11.9142C43.7863 10.4412 45.9868 9.74788 47.8985 10.3658C48.0772 10.4231 48.2375 10.499 48.398 10.5744C50.3747 11.8926 49.6823 13.8662 49.6823 13.8662C48.9182 15.7717 46.2646 15.8358 45.6518 15.8247C45.3952 15.7872 45.1397 15.7292 44.8896 15.6483C44.6675 15.5773 44.4636 15.4873 44.2698 15.3894C42.87 14.6238 42.2918 13.1892 42.9861 11.9142ZM52.0188 13.6566C52.3731 12.0815 51.793 10.4519 49.9895 9.41827L54.6073 0.940847L54.0191 0.751233L51.706 0.00561523L47.0602 8.53679C46.7275 8.51447 46.3984 8.51161 46.0732 8.53679C43.9443 8.62249 41.9603 9.60879 41.0783 11.2246C40.483 12.3175 40.512 13.4872 41.0231 14.5124L41.0169 14.5199L9.14123 50.4317L0.741455 59.894C2.64545 58.0205 4.12206 56.6955 5.2866 55.7399C5.43881 55.6158 5.5938 55.4888 5.73441 55.3772C5.75714 55.359 5.77803 55.3438 5.80053 55.3264C7.65604 53.8907 8.56117 53.5109 9.01431 53.4657C9.07882 53.4532 9.13474 53.4552 9.18555 53.4636C9.18996 53.4643 9.19553 53.4643 9.19993 53.465C9.35678 53.495 9.44379 53.5968 9.44379 53.5968L11.2629 51.549L42.603 16.2418C42.757 16.3457 42.906 16.4514 43.0779 16.5432C43.2079 16.6127 43.3534 16.6666 43.4912 16.7278C43.6499 16.7983 43.7937 16.8796 43.9652 16.9399C43.9951 16.9505 44.0251 16.9539 44.055 16.9637C44.0905 16.9755 44.1186 16.9935 44.1538 17.0047C44.3299 17.0606 44.5107 17.0878 44.6894 17.1303C44.8587 17.1706 45.0267 17.2217 45.1979 17.2495C45.2613 17.2599 45.3249 17.2663 45.3882 17.2747L45.3864 17.2822L45.3474 17.2753L37.3219 59.3246L36.8497 61.7796L37.2703 61.8715C37.6356 62.1729 38.0913 63.219 38.0054 66.5529L37.6692 71.0751L38.5284 66.5864L39.8662 59.6147L48.0187 17.1604L48.0124 17.1619L48.014 17.1521C49.6002 16.7894 50.9615 15.9281 51.6295 14.7042C51.6367 14.691 51.639 14.6774 51.6457 14.6644C51.6508 14.6545 51.6603 14.6461 51.6657 14.6365C51.7309 14.5174 51.7589 14.3951 51.8088 14.2746C51.8724 14.1212 51.9487 13.9709 51.991 13.815C52.0049 13.762 52.0067 13.7095 52.0188 13.6566Z" fill="#989A9D"/>
<path opacity="0.6784" d="M42.938 11.9144C43.7383 10.4413 45.9388 9.74805 47.8504 10.366C48.0291 10.4233 48.1894 10.4992 48.35 10.5745C50.3266 11.8928 49.6343 13.8664 49.6343 13.8664C48.87 15.7719 46.2165 15.836 45.6037 15.8249C45.3471 15.7874 45.0917 15.7294 44.8415 15.6485C44.6195 15.5774 44.4155 15.4874 44.2218 15.3896C42.822 14.624 42.2438 13.1894 42.938 11.9144ZM51.9707 13.6568C52.325 12.0817 51.745 10.4521 49.9415 9.41845L54.5592 0.941022L53.971 0.751408L51.658 0.00561523L47.0121 8.53678C46.6794 8.51446 46.3504 8.5116 46.0251 8.53678C43.8963 8.62248 41.9122 9.60878 41.0303 11.2246C40.4349 12.3175 40.4637 13.4872 40.9751 14.5124L40.9688 14.5199L9.09295 50.4318L0.693176 59.8941C2.59718 58.0206 4.07378 56.6956 5.23832 55.7401C5.39052 55.616 5.54552 55.489 5.68589 55.3774C5.70863 55.3592 5.72951 55.344 5.75225 55.3265C7.60799 53.8908 8.51289 53.5111 8.96603 53.4659C9.03054 53.4534 9.08645 53.4554 9.13727 53.4637C9.14168 53.4645 9.14724 53.4645 9.15165 53.4652C9.3085 53.4952 9.39528 53.5969 9.39528 53.5969L11.2144 51.5492L42.5545 16.242C42.7085 16.3459 42.8577 16.4516 43.0294 16.5434C43.1594 16.6128 43.3048 16.6668 43.4427 16.728C43.6014 16.7985 43.7452 16.8798 43.9167 16.9401C43.9466 16.9506 43.9766 16.954 44.0065 16.9639C44.042 16.9756 44.0701 16.9937 44.1053 17.0049C44.2814 17.0608 44.4622 17.0879 44.6408 17.1304C44.8102 17.1708 44.978 17.2219 45.1494 17.2497C45.2128 17.2601 45.2761 17.2665 45.3397 17.2749L45.3378 17.2824L45.2989 17.2754L37.2733 59.3247L36.8012 61.7798L37.2218 61.8717C37.587 62.1731 38.0427 63.2192 37.9569 66.553L37.6207 71.0753L38.4799 66.5866L39.8177 59.6149L47.9702 17.1606L47.9639 17.162L47.9655 17.1522C49.5517 16.7896 50.9129 15.9283 51.5809 14.7043C51.5881 14.6911 51.5905 14.6776 51.5972 14.6645C51.6023 14.6547 51.6118 14.6463 51.6171 14.6367C51.6823 14.5176 51.7104 14.3953 51.7605 14.2748C51.8241 14.1214 51.9004 13.971 51.9427 13.8152C51.9568 13.7621 51.9587 13.7097 51.9707 13.6568Z" fill="#95979A"/>
<path opacity="0.7" d="M42.89 11.9147C43.6903 10.4417 45.8908 9.74836 47.8025 10.3663C47.9811 10.4236 48.1415 10.4995 48.302 10.5749C50.2787 11.8931 49.5863 13.8667 49.5863 13.8667C48.8222 15.7722 46.1686 15.8363 45.5558 15.8252C45.2992 15.7877 45.0437 15.7297 44.7934 15.6488C44.5713 15.5778 44.3674 15.4878 44.1736 15.3899C42.774 14.6243 42.1958 13.1897 42.89 11.9147ZM51.9228 13.6571C52.3052 12.0857 51.697 10.4524 49.8935 9.41876L54.5113 0.941335L53.9231 0.751722L51.61 0.00610352L46.9642 8.53727C46.6315 8.51496 46.3024 8.5121 45.9771 8.53727C43.8483 8.62298 41.8643 9.60927 40.9823 11.2251C40.387 12.318 40.4157 13.4877 40.9271 14.5129L40.9208 14.5204L9.04522 50.4322L0.645447 59.8944C2.54945 58.0209 4.02606 56.6959 5.19059 55.7404C5.3428 55.6163 5.49779 55.4893 5.6384 55.3777C5.66114 55.3595 5.68179 55.3443 5.70476 55.3268C7.5482 53.8817 8.46539 53.5114 8.91854 53.4662C8.98304 53.4537 9.03896 53.4557 9.08977 53.4641C9.09418 53.4648 9.09975 53.4648 9.10416 53.4655C9.26101 53.4955 9.34778 53.5973 9.34778 53.5973L11.1669 51.5495L42.507 16.2423C42.661 16.3462 42.8098 16.4523 42.9819 16.5437C43.1114 16.6133 43.2573 16.6671 43.3952 16.7283C43.5539 16.7988 43.698 16.8797 43.8692 16.9404C43.8991 16.9508 43.9291 16.9543 43.9588 16.9642C43.9943 16.976 44.0223 16.9942 44.0576 17.0052C44.2335 17.0617 44.4145 17.0883 44.5931 17.1308C44.7625 17.1711 44.9302 17.2222 45.1017 17.25C45.1651 17.2604 45.2284 17.2668 45.292 17.2752L45.2901 17.2827L45.2511 17.2757L37.2256 59.3251L36.7534 61.7801L37.1741 61.872C37.5391 62.1734 37.995 63.2195 37.9092 66.5534L37.5727 71.0756L38.4319 66.5869L39.7698 59.6152L47.9222 17.1609L47.9159 17.1624L47.9176 17.1525C49.5037 16.7899 50.865 15.9286 51.533 14.7047C51.5402 14.6914 51.543 14.6781 51.5492 14.6648C51.5546 14.6552 51.5636 14.6466 51.5692 14.637C51.6337 14.5177 51.6625 14.3956 51.7126 14.2751C51.7761 14.1217 51.8504 13.971 51.8947 13.8155C51.9079 13.7623 51.9117 13.71 51.9228 13.6571Z" fill="#929497"/>
<path d="M50.9645 0L53.8657 0.935406L48.8011 10.2329L45.9019 9.29624L50.9645 0Z" fill="#494848"/>
<path d="M46.2388 8.67757L50.9645 0L51.6216 0.212112L46.9894 8.67757H46.2388Z" fill="#989898"/>
<path d="M42.5347 15.4782L40.4103 14.3623L8.3996 50.426L10.5215 51.5435L42.5347 15.4782Z" fill="#494848"/>
<path d="M8.39959 50.426L10.5215 51.5434L8.70239 53.5911C8.70239 53.5911 8.14854 51.8755 -0.000183105 59.8881L8.39959 50.426Z" fill="#B7B7B7"/>
<path d="M8.3996 50.4259L8.75576 50.6136L40.4998 14.8938C40.4998 14.8938 40.4998 14.8938 40.2752 14.5142L8.3996 50.4259Z" fill="#989898"/>
<path d="M10.5215 51.5433L8.7024 53.5911C8.7024 53.5911 8.32072 52.5944 4.30042 55.9323L9.10496 50.7979L10.5215 51.5433Z" fill="#888888"/>
<path d="M10.5215 51.5434L10.1716 51.3593L41.5133 16.0027C41.5133 16.0027 41.6465 16.1171 41.8507 16.2489L10.5215 51.5434Z" fill="#353535"/>
<path d="M10.5215 51.5438L8.70244 53.5915C8.70244 53.5915 8.54652 53.4067 8.27203 53.4605L10.1716 51.3599L10.5215 51.5438Z" fill="#494848"/>
<path d="M44.8678 16.1155L47.4146 16.4037L39.1243 59.6091L36.5801 59.3189L44.8678 16.1155Z" fill="#494848"/>
<path d="M39.1243 59.609L36.5801 59.3188L36.108 61.7739C36.108 61.7739 38.0266 60.8029 36.9491 70.9437L39.1243 59.609Z" fill="#888888"/>
<path d="M37.7864 66.5808L37.2655 66.5222L36.9272 71.0696L37.7864 66.5808Z" fill="#494848"/>
<path d="M43.4121 16.9993C46.3331 17.9402 49.6965 16.8821 50.9239 14.6308C52.1448 12.3844 50.7715 9.79684 47.8461 8.85465C44.924 7.91031 41.5642 8.9691 40.3371 11.219C39.1117 13.4672 40.4865 16.0555 43.4121 16.9993ZM47.111 10.2061C49.0624 10.8353 49.9805 12.5627 49.1656 14.0664C48.3463 15.5659 46.0978 16.2738 44.1483 15.6427C42.197 15.0142 41.2789 13.2867 42.0972 11.7818C42.9128 10.2829 45.1585 9.57562 47.111 10.2061Z" fill="#989898"/>
<path d="M47.4591 10.4231C47.4591 10.4231 50.2587 11.371 49.3452 13.9312C49.3452 13.9312 48.3573 16.481 44.7764 15.815C44.7764 15.815 48.0754 16.0188 48.9411 13.8608C48.9411 13.8608 49.7121 11.7356 47.4591 10.4231Z" fill="#353535"/>
<path d="M43.2237 16.9344C46.2391 18.0028 49.6812 16.9092 50.8878 14.6982C52.0869 12.4923 51.2713 9.78265 47.741 8.76314C44.8345 7.92344 41.7267 9.14809 40.5223 11.3569C39.3174 13.5652 40.4014 15.9343 43.2237 16.9344ZM47.1573 10.3602C49.0677 10.9761 49.9659 12.6689 49.1666 14.1453C48.3617 15.6176 46.1575 16.3144 44.2488 15.6972C42.3383 15.0819 41.4411 13.3859 42.2448 11.9086C43.0451 10.4358 45.2458 9.74248 47.1573 10.3602Z" fill="#494848"/>
<path d="M49.2589 9.392L48.7596 9.13739L53.2776 0.74585L53.8658 0.935643L49.2589 9.392Z" fill="#353535"/>
<path d="M44.6059 17.2703L36.5801 59.3194L37.0407 59.3724L45.0263 17.3427L44.6059 17.2703Z" fill="#989898"/>
<path d="M39.1243 59.6093L38.684 59.5591L46.8383 17.27L47.2768 17.155L39.1243 59.6093Z" fill="#353535"/>
<path d="M39.1243 59.6092L37.7865 66.5808H37.6161L38.6839 59.5591L39.1243 59.6092Z" fill="#494848"/>
<path d="M36.5801 59.3188L36.1079 61.7739L36.6012 61.8826L37.0407 59.3719L36.5801 59.3188Z" fill="#B7B7B7"/>
</svg>
